<svg id="visual" viewBox="0 0 2000 150" width="2000" height="150" xmlns="http://www.w3.org/2000/svg" xmlns:xlink="http://www.w3.org/1999/xlink" version="1.1"><path d="M0 122L13.8 115.3C27.7 108.7 55.3 95.3 83.2 94.2C111 93 139 104 166.8 113.2C194.7 122.3 222.3 129.7 250 122.7C277.7 115.7 305.3 94.3 333.2 84.2C361 74 389 75 416.8 83.7C444.7 92.3 472.3 108.7 500 112.2C527.7 115.7 555.3 106.3 583.2 105.5C611 104.7 639 112.3 666.8 107.7C694.7 103 722.3 86 750 88.2C777.7 90.3 805.3 111.7 833.2 111.7C861 111.7 889 90.3 916.8 86.5C944.7 82.7 972.3 96.3 1000 99.5C1027.7 102.7 1055.3 95.3 1083.2 88.8C1111 82.3 1139 76.7 1166.8 81.3C1194.7 86 1222.3 101 1250 109.7C1277.7 118.3 1305.3 120.7 1333.2 116.2C1361 111.7 1389 100.3 1416.8 102.7C1444.7 105 1472.3 121 1500 117.5C1527.7 114 1555.3 91 1583.2 78.8C1611 66.7 1639 65.3 1666.8 64.2C1694.7 63 1722.3 62 1750 62.5C1777.7 63 1805.3 65 1833.2 72.2C1861 79.3 1889 91.7 1916.8 94.8C1944.7 98 1972.3 92 1986.2 89L2000 86L2000 151L1986.2 151C1972.3 151 1944.7 151 1916.8 151C1889 151 1861 151 1833.2 151C1805.3 151 1777.7 151 1750 151C1722.3 151 1694.7 151 1666.8 151C1639 151 1611 151 1583.2 151C1555.3 151 1527.7 151 1500 151C1472.3 151 1444.7 151 1416.8 151C1389 151 1361 151 1333.2 151C1305.3 151 1277.7 151 1250 151C1222.3 151 1194.7 151 1166.8 151C1139 151 1111 151 1083.2 151C1055.3 151 1027.7 151 1000 151C972.3 151 944.7 151 916.8 151C889 151 861 151 833.2 151C805.3 151 777.7 151 750 151C722.3 151 694.7 151 666.8 151C639 151 611 151 583.2 151C555.3 151 527.7 151 500 151C472.3 151 444.7 151 416.8 151C389 151 361 151 333.2 151C305.3 151 277.7 151 250 151C222.3 151 194.7 151 166.8 151C139 151 111 151 83.2 151C55.3 151 27.7 151 13.8 151L0 151Z" fill="#05C7F2" stroke-linecap="round" stroke-linejoin="miter"></path></svg>